<svg data-logo="logo" xmlns="http://www.w3.org/2000/svg" viewBox="0 0 427 42">
        <g style="opacity: 1;" id="logogram" transform="translate(0, 1) rotate(0)"><path d="M0 33L4.60606 25H12.2448C17.2569 25 21.4947 28.7103 22.1571 33.6784L23 40H13L11.5585 36.6365C10.613 34.4304 8.44379 33 6.04362 33H0Z" fill="#0047C1"></path><path d="M46 33L41.3939 25H33.7552C28.7431 25 24.5053 28.7103 23.8429 33.6784L23 40H33L34.4415 36.6365C35.387 34.4304 37.5562 33 39.9564 33H46Z" fill="#0047C1"></path><path d="M4.60606 25L18.9999 0H23L22.6032 9.52405C22.2608 17.7406 15.7455 24.3596 7.53537 24.8316L4.60606 25Z" fill="#0047C1"></path><path d="M41.3939 25L27.0001 0H23L23.3968 9.52405C23.7392 17.7406 30.2545 24.3596 38.4646 24.8316L41.3939 25Z" fill="#0047C1"></path></g>
        <g style="opacity: 1;" id="logotype" transform="translate(52, 1.5)"><path fill="#000000" d="M14.51 32L8.13 32L8.13 7.01L22.17 7.01Q24.20 7.01 25.88 7.57Q27.56 8.13 28.79 9.21Q30.01 10.30 30.69 11.87Q31.38 13.45 31.38 15.44L31.38 15.44Q31.38 17.51 30.69 19.07Q30.01 20.63 28.79 21.73Q27.56 22.83 25.88 23.39Q24.20 23.95 22.17 23.95L22.17 23.95L14.51 23.95L14.51 32ZM14.51 11.91L14.51 19.02L21.30 19.02Q22.35 19.02 23.13 18.59Q23.92 18.17 24.38 17.37Q24.83 16.56 24.83 15.48L24.83 15.48Q24.83 13.80 23.85 12.85Q22.87 11.91 21.30 11.91L21.30 11.91L14.51 11.91ZM40.13 32L34.11 32L34.11 14.01L40.13 14.01L40.13 19.96L39.71 19.75Q40.16 17.68 40.98 16.41Q41.81 15.13 43.07 14.57Q44.33 14.01 46.11 14.01L46.11 14.01L47.48 14.01L47.48 19.50L45.38 19.50Q43.73 19.50 42.56 20.20Q41.39 20.91 40.76 22.22Q40.13 23.53 40.13 25.38L40.13 25.38L40.13 32ZM59.41 32.49L59.41 32.49Q56.12 32.49 53.79 31.30Q51.47 30.11 50.22 27.96Q48.98 25.80 48.98 23.00L48.98 23.00Q48.98 21.32 49.42 19.87Q49.86 18.42 50.73 17.25Q51.61 16.07 52.88 15.23Q54.16 14.39 55.79 13.96Q57.42 13.52 59.41 13.52L59.41 13.52Q62.74 13.52 65.06 14.73Q67.39 15.93 68.62 18.07Q69.84 20.20 69.84 23.00L69.84 23.00Q69.84 24.68 69.39 26.16Q68.93 27.63 68.07 28.78Q67.22 29.93 65.96 30.77Q64.70 31.61 63.03 32.05Q61.37 32.49 59.41 32.49ZM59.41 28.15L59.41 28.15Q60.29 28.15 60.97 27.92Q61.65 27.70 62.18 27.24Q62.70 26.79 63.05 26.17Q63.40 25.56 63.58 24.74Q63.75 23.91 63.75 23.00L63.75 23.00Q63.75 21.39 63.26 20.24Q62.77 19.09 61.81 18.47Q60.85 17.86 59.41 17.86L59.41 17.86Q58.54 17.86 57.84 18.09Q57.14 18.31 56.65 18.75Q56.16 19.19 55.79 19.82Q55.42 20.45 55.25 21.24Q55.07 22.02 55.07 23.00L55.07 23.00Q55.07 24.58 55.56 25.73Q56.05 26.89 57.01 27.52Q57.98 28.15 59.41 28.15ZM78.70 38.65L72.68 38.65L72.68 14.01L78.70 14.01L78.70 18.14L78.17 17.13Q78.73 16.07 79.75 15.27Q80.76 14.46 82.18 13.99Q83.60 13.52 85.38 13.52L85.38 13.52Q87.55 13.52 89.41 14.57Q91.26 15.62 92.40 17.72Q93.54 19.82 93.54 23.04L93.54 23.04Q93.54 24.93 93.12 26.45Q92.70 27.98 91.93 29.11Q91.16 30.25 90.12 30.98Q89.09 31.72 87.88 32.10Q86.68 32.49 85.38 32.49L85.38 32.49Q83.60 32.49 82.18 32.03Q80.76 31.58 79.75 30.74Q78.73 29.90 78.17 28.85L78.17 28.85L78.70 27.91L78.70 38.65ZM83.04 28.11L83.04 28.11Q83.91 28.11 84.59 27.87Q85.28 27.63 85.82 27.17Q86.36 26.71 86.73 26.10Q87.10 25.49 87.27 24.70Q87.45 23.91 87.45 23.04L87.45 23.04Q87.45 21.50 86.96 20.36Q86.47 19.23 85.47 18.56Q84.47 17.89 83.04 17.89L83.04 17.89Q82.23 17.89 81.53 18.14Q80.83 18.38 80.29 18.84Q79.75 19.29 79.36 19.92Q78.98 20.55 78.80 21.32Q78.63 22.09 78.63 23.00L78.63 23.00Q78.63 24.51 79.13 25.66Q79.64 26.82 80.66 27.47Q81.67 28.11 83.04 28.11ZM102.46 32L96.41 32L96.41 14.01L102.46 14.01L102.46 32ZM102.46 11.63L96.37 11.63L96.37 7.01L102.46 7.01L102.46 11.63ZM115.66 32.49L115.66 32.49Q112.47 32.49 110.13 31.27Q107.78 30.04 106.54 27.91Q105.30 25.77 105.30 23.00L105.30 23.00Q105.30 21.32 105.75 19.87Q106.21 18.42 107.08 17.27Q107.96 16.11 109.22 15.27Q110.48 14.43 112.09 13.97Q113.70 13.52 115.62 13.52L115.62 13.52Q117.86 13.52 119.73 14.13Q121.61 14.74 122.92 16.02Q124.23 17.30 124.93 19.36Q125.63 21.43 125.56 24.34L125.56 24.34L109.18 24.34L109.18 21.11L119.82 21.11Q119.65 20.13 119.30 19.49Q118.95 18.84 118.39 18.40Q117.83 17.96 117.13 17.77Q116.43 17.58 115.59 17.58L115.59 17.58Q114.68 17.58 113.94 17.82Q113.21 18.07 112.66 18.54Q112.12 19.02 111.75 19.68Q111.39 20.34 111.21 21.18Q111.04 22.02 111.04 23.00L111.04 23.00Q111.04 24.65 111.53 25.88Q112.02 27.10 113.07 27.77Q114.12 28.43 115.69 28.43L115.69 28.43Q117.06 28.43 118.00 28.01Q118.95 27.59 119.40 26.82L119.40 26.82L125.46 26.82Q125.14 28.29 124.00 29.59Q122.87 30.88 120.80 31.68Q118.74 32.49 115.66 32.49ZM135.78 32.49L135.78 32.49Q133.61 32.49 131.76 31.44Q129.90 30.39 128.75 28.27Q127.59 26.16 127.59 22.97L127.59 22.97Q127.59 21.08 128.01 19.56Q128.43 18.03 129.22 16.90Q130.01 15.76 131.04 15.02Q132.07 14.29 133.28 13.90Q134.49 13.52 135.78 13.52L135.78 13.52Q137.53 13.52 138.95 13.97Q140.37 14.43 141.38 15.23Q142.40 16.04 142.99 17.16L142.99 17.16L142.43 18.10L142.43 7.01L148.45 7.01L148.45 32L142.43 32L142.43 27.87L142.99 28.85Q142.36 29.97 141.29 30.79Q140.23 31.61 138.83 32.05Q137.43 32.49 135.78 32.49ZM138.09 28.11L138.09 28.11Q138.90 28.11 139.60 27.87Q140.30 27.63 140.84 27.17Q141.38 26.71 141.75 26.09Q142.12 25.45 142.33 24.68Q142.54 23.91 142.54 23.00L142.54 23.00Q142.54 21.50 141.99 20.34Q141.45 19.19 140.47 18.54Q139.49 17.89 138.09 17.89L138.09 17.89Q137.25 17.89 136.55 18.14Q135.85 18.38 135.31 18.84Q134.77 19.29 134.40 19.91Q134.03 20.52 133.86 21.31Q133.68 22.09 133.68 22.97L133.68 22.97Q133.68 24.48 134.19 25.63Q134.70 26.79 135.68 27.45Q136.66 28.11 138.09 28.11ZM157.66 32.49L157.66 32.49Q154.68 32.49 153.00 31.07Q151.32 29.66 151.32 27.27L151.32 27.27Q151.32 25.66 152.09 24.49Q152.86 23.32 154.44 22.55Q156.01 21.78 158.36 21.46L158.36 21.46L162.80 20.91Q163.57 20.77 163.96 20.40Q164.34 20.03 164.34 19.40L164.34 19.40L164.34 19.36Q164.34 18.73 163.99 18.30Q163.64 17.86 162.98 17.65Q162.31 17.44 161.33 17.44L161.33 17.44Q159.93 17.44 159.06 17.81Q158.18 18.17 158.01 19.09L158.01 19.09L152.09 19.09Q152.41 17.16 153.65 15.93Q154.89 14.71 156.89 14.11Q158.88 13.52 161.47 13.52L161.47 13.52Q164.41 13.52 166.39 14.27Q168.37 15.02 169.33 16.55Q170.29 18.07 170.29 20.41L170.29 20.41L170.29 32L164.66 32L164.66 27.38L165.25 28.04Q164.59 29.59 163.48 30.55Q162.38 31.51 160.91 32Q159.44 32.49 157.66 32.49ZM159.76 28.36L159.76 28.36Q160.81 28.36 161.66 27.99Q162.52 27.63 163.13 27.01Q163.75 26.40 164.04 25.63Q164.34 24.86 164.34 24.02L164.34 24.02L164.34 21.74L165.29 22.90Q164.87 23.32 164.25 23.53Q163.64 23.74 162.42 23.98L162.42 23.98L159.48 24.51Q158.43 24.75 157.88 25.24Q157.34 25.73 157.34 26.47L157.34 26.47Q157.34 27.38 158.01 27.87Q158.67 28.36 159.76 28.36ZM181.00 32.49L181.00 32.49Q178.83 32.49 176.98 31.44Q175.12 30.39 173.97 28.27Q172.81 26.16 172.81 22.97L172.81 22.97Q172.81 21.08 173.23 19.56Q173.65 18.03 174.44 16.90Q175.23 15.76 176.26 15.02Q177.29 14.29 178.50 13.90Q179.71 13.52 181.00 13.52L181.00 13.52Q182.75 13.52 184.17 13.97Q185.59 14.43 186.60 15.23Q187.62 16.04 188.21 17.16L188.21 17.16L187.65 18.10L187.65 7.01L193.67 7.01L193.67 32L187.65 32L187.65 27.87L188.21 28.85Q187.58 29.97 186.51 30.79Q185.45 31.61 184.05 32.05Q182.65 32.49 181.00 32.49ZM183.31 28.11L183.31 28.11Q184.12 28.11 184.82 27.87Q185.52 27.63 186.06 27.17Q186.60 26.71 186.97 26.09Q187.34 25.45 187.55 24.68Q187.76 23.91 187.76 23.00L187.76 23.00Q187.76 21.50 187.21 20.34Q186.67 19.19 185.69 18.54Q184.71 17.89 183.31 17.89L183.31 17.89Q182.47 17.89 181.77 18.14Q181.07 18.38 180.53 18.84Q179.99 19.29 179.62 19.91Q179.25 20.52 179.08 21.31Q178.90 22.09 178.90 22.97L178.90 22.97Q178.90 24.48 179.41 25.63Q179.92 26.79 180.90 27.45Q181.88 28.11 183.31 28.11ZM206.87 32.49L206.87 32.49Q203.68 32.49 201.34 31.27Q198.99 30.04 197.75 27.91Q196.51 25.77 196.51 23.00L196.51 23.00Q196.51 21.32 196.96 19.87Q197.42 18.42 198.29 17.27Q199.17 16.11 200.43 15.27Q201.69 14.43 203.30 13.97Q204.91 13.52 206.83 13.52L206.83 13.52Q209.07 13.52 210.94 14.13Q212.82 14.74 214.13 16.02Q215.44 17.30 216.14 19.36Q216.84 21.43 216.77 24.34L216.77 24.34L200.39 24.34L200.39 21.11L211.03 21.11Q210.86 20.13 210.51 19.49Q210.16 18.84 209.60 18.40Q209.04 17.96 208.34 17.77Q207.64 17.58 206.80 17.58L206.80 17.58Q205.89 17.58 205.15 17.82Q204.42 18.07 203.87 18.54Q203.33 19.02 202.96 19.68Q202.60 20.34 202.42 21.18Q202.25 22.02 202.25 23.00L202.25 23.00Q202.25 24.65 202.74 25.88Q203.23 27.10 204.28 27.77Q205.33 28.43 206.90 28.43L206.90 28.43Q208.27 28.43 209.21 28.01Q210.16 27.59 210.61 26.82L210.61 26.82L216.67 26.82Q216.35 28.29 215.21 29.59Q214.08 30.88 212.01 31.68Q209.95 32.49 206.87 32.49ZM228.18 32.49L228.18 32.49Q225.84 32.49 224.14 32.05Q222.44 31.61 221.27 30.83Q220.10 30.04 219.48 29.01Q218.87 27.98 218.77 26.71L218.77 26.71L224.79 26.71Q224.93 27.34 225.35 27.73Q225.77 28.11 226.52 28.31Q227.27 28.50 228.29 28.50L228.29 28.50Q229.30 28.50 229.98 28.31Q230.67 28.11 231.03 27.73Q231.40 27.34 231.40 26.82L231.40 26.82Q231.40 26.29 231.02 25.96Q230.63 25.63 229.86 25.45L229.86 25.45L225.28 24.61Q222.27 24.13 220.78 22.81Q219.29 21.50 219.29 19.36L219.29 19.36Q219.29 18.03 219.89 16.95Q220.48 15.86 221.62 15.11Q222.76 14.36 224.37 13.94Q225.98 13.52 227.94 13.52L227.94 13.52Q230.74 13.52 232.66 14.17Q234.59 14.81 235.64 16.02Q236.69 17.23 236.86 18.91L236.86 18.91L230.88 18.91Q230.81 18.45 230.44 18.16Q230.07 17.86 229.44 17.67Q228.81 17.47 227.87 17.47L227.87 17.47Q227.03 17.47 226.41 17.67Q225.80 17.86 225.47 18.21Q225.14 18.56 225.14 19.02L225.14 19.02Q225.14 19.61 225.61 19.94Q226.08 20.27 226.82 20.45L226.82 20.45L231.82 21.29Q233.26 21.50 234.52 22.08Q235.78 22.66 236.56 23.74Q237.35 24.82 237.35 26.50L237.35 26.50Q237.35 28.01 236.70 29.13Q236.06 30.25 234.83 31.00Q233.61 31.75 231.91 32.12Q230.21 32.49 228.18 32.49ZM253.38 32L247.22 32L257.44 7.01L264.83 7.01L275.01 32L268.26 32L260.21 10.93L261.50 10.93L253.38 32ZM267.87 26.86L253.98 26.86L253.98 22.20L267.87 22.20L267.87 26.86ZM289.85 32.49L289.85 32.49Q288.10 32.49 286.68 32.02Q285.27 31.55 284.25 30.74Q283.24 29.93 282.64 28.85L282.64 28.85L283.13 27.87L283.13 32L277.15 32L277.15 7.01L283.13 7.01L283.13 18.10L282.64 17.16Q283.24 16.04 284.25 15.23Q285.27 14.43 286.68 13.97Q288.10 13.52 289.85 13.52L289.85 13.52Q291.99 13.52 293.86 14.55Q295.73 15.58 296.89 17.68Q298.04 19.78 298.04 22.97L298.04 22.97Q298.04 24.89 297.59 26.42Q297.13 27.94 296.38 29.09Q295.63 30.25 294.58 31.00Q293.53 31.75 292.32 32.12Q291.11 32.49 289.85 32.49ZM287.54 28.11L287.54 28.11Q288.38 28.11 289.06 27.87Q289.75 27.63 290.29 27.17Q290.83 26.71 291.22 26.09Q291.60 25.45 291.76 24.67Q291.92 23.88 291.92 22.97L291.92 22.97Q291.92 21.50 291.41 20.34Q290.90 19.19 289.92 18.54Q288.94 17.89 287.54 17.89L287.54 17.89Q286.67 17.89 285.98 18.14Q285.30 18.38 284.76 18.84Q284.22 19.29 283.83 19.92Q283.45 20.55 283.25 21.32Q283.06 22.09 283.06 23.00L283.06 23.00Q283.06 24.51 283.60 25.65Q284.15 26.79 285.13 27.45Q286.11 28.11 287.54 28.11ZM307.60 32.49L307.60 32.49Q305.88 32.49 304.57 31.95Q303.26 31.41 302.40 30.41Q301.54 29.41 301.12 27.99Q300.70 26.57 300.70 24.82L300.70 24.82L300.70 14.01L306.72 14.01L306.72 23.77Q306.72 25.04 307.11 25.95Q307.49 26.86 308.26 27.34Q309.03 27.84 310.12 27.84L310.12 27.84Q311.45 27.84 312.34 27.26Q313.23 26.68 313.70 25.66Q314.18 24.65 314.18 23.35L314.18 23.35L314.18 14.01L320.20 14.01L320.20 32L314.18 32L314.18 27.38L314.74 28.04Q313.83 30.29 311.94 31.39Q310.05 32.49 307.60 32.49ZM329.86 32L323.84 32L323.84 14.01L329.86 14.01L329.86 19.96L329.44 19.75Q329.89 17.68 330.71 16.41Q331.54 15.13 332.80 14.57Q334.06 14.01 335.84 14.01L335.84 14.01L337.21 14.01L337.21 19.50L335.11 19.50Q333.46 19.50 332.29 20.20Q331.12 20.91 330.49 22.22Q329.86 23.53 329.86 25.38L329.86 25.38L329.86 32ZM345.92 32L339.90 32L339.90 14.01L345.92 14.01L345.92 19.96L345.50 19.75Q345.96 17.68 346.78 16.41Q347.60 15.13 348.86 14.57Q350.12 14.01 351.91 14.01L351.91 14.01L353.27 14.01L353.27 19.50L351.17 19.50Q349.53 19.50 348.35 20.20Q347.18 20.91 346.55 22.22Q345.92 23.53 345.92 25.38L345.92 25.38L345.92 32ZM361.01 32.49L361.01 32.49Q358.03 32.49 356.35 31.07Q354.67 29.66 354.67 27.27L354.67 27.27Q354.67 25.66 355.44 24.49Q356.21 23.32 357.79 22.55Q359.36 21.78 361.71 21.46L361.71 21.46L366.15 20.91Q366.92 20.77 367.31 20.40Q367.69 20.03 367.69 19.40L367.69 19.40L367.69 19.36Q367.69 18.73 367.34 18.30Q366.99 17.86 366.33 17.65Q365.66 17.44 364.68 17.44L364.68 17.44Q363.28 17.44 362.41 17.81Q361.53 18.17 361.36 19.09L361.36 19.09L355.44 19.09Q355.76 17.16 357.00 15.93Q358.24 14.71 360.24 14.11Q362.23 13.52 364.82 13.52L364.82 13.52Q367.76 13.52 369.74 14.27Q371.72 15.02 372.68 16.55Q373.64 18.07 373.64 20.41L373.64 20.41L373.64 32L368.01 32L368.01 27.38L368.60 28.04Q367.94 29.59 366.83 30.55Q365.73 31.51 364.26 32Q362.79 32.49 361.01 32.49ZM363.11 28.36L363.11 28.36Q364.16 28.36 365.01 27.99Q365.87 27.63 366.48 27.01Q367.10 26.40 367.39 25.63Q367.69 24.86 367.69 24.02L367.69 24.02L367.69 21.74L368.64 22.90Q368.22 23.32 367.60 23.53Q366.99 23.74 365.77 23.98L365.77 23.98L362.83 24.51Q361.78 24.75 361.23 25.24Q360.69 25.73 360.69 26.47L360.69 26.47Q360.69 27.38 361.36 27.87Q362.02 28.36 363.11 28.36ZM367.24 11.10L362.41 11.10L365.28 6.31L370.98 6.31L367.24 11.10Z"></path></g>
        
      </svg>